# xmcd
#
# Track frame offsets:
#	180
#	15352
#	29624
#	49482
#	67411
#	80611
#	100536
#	112986
#	127741
#	144117
#	161070
#	177133
#	192057
#	207511
#	223925
#
# Disc length: 3195 seconds
#
# Revision: 1
# Processed by: cddbd v1.5.1PL2 Copyright (c) Steve Scherf et al.
# Submitted via: audiograbber 1.83.01
#
DISCID=d10c790f
DTITLE=Sound Choice - SC8129
DYEAR=1900
DGENRE=Karaoke Country
TTITLE0=Jackson, Alan - Summertime Blues
TTITLE1=Yoakam, Dwight - Pocket Of A Clown
TTITLE2=Berg, Martraca - I Won'T Let Go
TTITLE3=Hill, Faith - But I Will
TTITLE4=Davis, Linda - Love Didn'T Do It
TTITLE5=Hill, Faith - Piece Of My Heart
TTITLE6=Lawrence, Tracy - Renegades, Rebels And Rogues
TTITLE7=Ball, David - Thinkin' Problem
TTITLE8=Foster, Radney - Labor Of Love
TTITLE9=Supernaw, Doug - State Fair
TTITLE10=Stone, Doug - More Love
TTITLE11=Travis, Randy - Whisper My Name
TTITLE12=Judd, Wynonna - Girls With Guitars
TTITLE13=Walker, Clay - Dreaming With My Eyes Open
TTITLE14=Parnell, Lee Roy - Take These Chains From My Heart 
EXTD=
EXTT0=
EXTT1=
EXTT2=
EXTT3=
EXTT4=
EXTT5=
EXTT6=
EXTT7=
EXTT8=
EXTT9=
EXTT10=
EXTT11=
EXTT12=
EXTT13=
EXTT14=
PLAYORDER=
